<?xml version="1.0" encoding="UTF-8"?>
<svg xmlns="http://www.w3.org/2000/svg" width="1822.94" height="595.28" viewBox="0 0 1822.94 595.28">
  <defs>
    <style>
      .cls-1 {
        fill: #233a1e;
      }

      .cls-2 {
        fill: #213a1c;
      }

      .cls-2, .cls-3 {
        stroke: #233a1e;
      }

      .cls-2, .cls-3, .cls-4 {
        stroke-miterlimit: 10;
      }

      .cls-3 {
        fill: none;
        stroke-width: 10px;
      }

      .cls-4 {
        fill: #5e7f57;
        stroke: #5e7f57;
      }
    </style>
  </defs>
  <g id="Layer_2" data-name="Layer 2">
    <path class="cls-2" d="M445.21,447.79v-72.39s.48-12.67,4.85-27.77c3.97-13.73,11.17-29.47,24.15-39.53,0,0,39.82-38.74,90.9-43.43,0,0-43.72,40.7-51.08,53.61,0,0-16.45,18.39-20.78,45.39l-2.6,22.3-.16,61.83h-45.29Z"/>
    <path class="cls-2" d="M465.82,329.98c-11.9-13.06-19.44-19.35-22.75-21.59-5.45-3.67-6.04-4.21-7.79-5.33-2.52-1.6-9.41-5.64-24.81-10-3.52-.99-10.13-3.7-26.71-5.57-23.08-2.61-40.7-2.87-46.55-2.87-.41,0-.51,.52-.13,.65,6.98,2.31,43.91,22.6,43.91,22.61,0,0,.02,.01,.02,.01,56.58,36.7,64.64,67.28,64.82,67.98,6.67-15.3,13.34-30.59,20-45.89Z"/>
    <path class="cls-4" d="M456.71,447.79v-72.39s.43-12.67,4.38-27.77c3.59-13.73,10.1-29.47,21.84-39.53,0,0,36-38.74,82.17-43.43,0,0-39.52,40.7-46.17,53.61,0,0-14.87,18.39-18.78,45.39l-2.35,22.3-.14,61.83h-40.94Z"/>
    <path class="cls-4" d="M475.35,329.98c-10.75-13.06-17.57-19.35-20.57-21.59-4.93-3.67-5.46-4.21-7.05-5.33-2.28-1.6-8.5-5.64-22.43-10-3.18-.99-9.15-3.7-24.15-5.57-20.86-2.61-36.79-2.87-42.09-2.87-.37,0-.47,.52-.11,.65,6.31,2.31,39.69,22.6,39.7,22.61,0,0,.01,.01,.01,.01,51.15,36.7,58.43,67.28,58.6,67.98,6.03-15.3,12.06-30.59,18.08-45.89Z"/>
    <circle class="cls-3" cx="456.71" cy="332.82" r="134.57"/>
  </g>
  <g id="Layer_3" data-name="Layer 3">
    <g>
      <path class="cls-1" d="M681.02,359.99v-18.98c0-.61-.15-1.21-.44-1.75-8.2-7.63-16.4-15.26-24.6-22.89,.05-.93,.29-3.36,2.07-5.67,1.39-1.8,3.05-2.68,3.91-3.06,1.6-.93,3.05-1.4,4.08-1.65,1.41-.35,2.92-.72,4.78-.32,1.72,.37,2.95,1.22,3.64,1.79,.7,9.33,5.33,16.3,11.11,17.45,2.85,.57,5.3-.42,6.2-.79,8.69-3.63,9.52-15.8,9.55-16.32,1.22-.37,6.08-1.71,11.26,.75,3.61,1.71,5.57,4.4,6.37,5.65-8.77,8.35-17.55,16.7-26.32,25.05-.3,.55-.46,1.17-.46,1.79v18.95c0,2.05-1.66,3.71-3.71,3.71h-3.71c-2.05,0-3.71-1.66-3.71-3.71Z"/>
      <path class="cls-1" d="M747.93,359.99v-18.98c0-.61-.15-1.21-.44-1.75-8.2-7.63-16.4-15.26-24.6-22.89,.05-.93,.29-3.36,2.07-5.67,1.39-1.8,3.05-2.68,3.91-3.06,1.6-.93,3.05-1.4,4.08-1.65,1.41-.35,2.92-.72,4.78-.32,1.72,.37,2.95,1.22,3.64,1.79,.7,9.33,5.33,16.3,11.11,17.45,2.85,.57,5.3-.42,6.2-.79,8.69-3.63,9.52-15.8,9.55-16.32,1.22-.37,6.08-1.71,11.26,.75,3.61,1.71,5.57,4.4,6.37,5.65-8.77,8.35-17.55,16.7-26.32,25.05-.3,.55-.46,1.17-.46,1.79v18.95c0,2.05-1.66,3.71-3.71,3.71h-3.71c-2.05,0-3.71-1.66-3.71-3.71Z"/>
    </g>
    <g>
      <path class="cls-1" d="M894.16,350.38c0,.81-.52,1.53-1.28,1.78-5.01,1.63-9.78,2.45-14.29,2.45-4.88,0-9.21-1.15-13.01-3.44-3.8-2.29-6.69-5.54-8.68-9.73-1.99-4.19-2.99-8.93-2.99-14.22s.93-9.6,2.78-13.71c1.85-4.11,4.58-7.39,8.19-9.85,3.61-2.46,8.82-3.69,15.64-3.69,4.29,0,8.35,.42,12.19,1.27,.85,.19,1.45,.96,1.45,1.83v4.26c0,1.29-1.27,2.18-2.49,1.77-4.34-1.47-8.01-2.2-11.01-2.2s-5.55,.78-8,2.34c-2.45,1.56-4.31,4.03-5.59,7.43-1.28,3.39-1.92,7.01-1.92,10.85,0,5.79,1.49,10.51,4.46,14.17,2.98,3.67,6.73,5.5,11.25,5.5,3.25,0,6.82-.77,10.71-2.32,1.24-.49,2.58,.39,2.58,1.73v3.78Z"/>
      <path class="cls-1" d="M909.05,351.44v-34.44c0-1.03,.84-1.87,1.87-1.87h6.55c1.08,0,1.93,.9,1.87,1.98l-.31,5.37h.42c1.36-2.23,2.71-3.87,4.06-4.94s2.82-1.88,4.41-2.44,3.45-.84,5.55-.84c1.63,0,3.52,.18,5.68,.55,.9,.15,1.57,.94,1.57,1.85v12.21c0,1.03-.84,1.87-1.87,1.87h-3.22c-1.03,0-1.87-.84-1.87-1.87v-3.58c0-1.03-.83-1.86-1.86-1.86h0c-1.59,0-3.11,.27-4.55,.81-1.44,.54-2.8,1.32-4.08,2.34-1.17,.94-2.34,2.29-3.51,4.05-.2,.3-.31,.67-.31,1.04v19.78c0,1.03-.84,1.87-1.87,1.87h-6.66c-1.03,0-1.87-.84-1.87-1.87Z"/>
      <path class="cls-1" d="M990.35,350.29c0,.85-.57,1.6-1.4,1.81-5.38,1.39-10.15,2.09-14.32,2.09s-8.02-.79-11.27-2.38c-3.25-1.58-5.75-3.93-7.51-7.04-1.76-3.11-2.64-6.6-2.64-10.47s.82-7.19,2.46-10.38c1.64-3.19,4.03-5.6,7.17-7.23,3.14-1.63,6.6-2.45,10.37-2.45,5.23,0,9.39,1.68,12.48,5.04s4.64,8.02,4.64,13.98v2c0,1.03-.84,1.87-1.87,1.87h-21.64c-1.26,0-2.19,1.23-1.8,2.42,.63,1.9,1.79,3.4,3.47,4.51,2.34,1.55,5.2,2.32,8.58,2.32s6.86-.62,10.81-1.87c1.21-.38,2.44,.51,2.44,1.78v4Zm-23.9-20.08h11.83c1.13,0,1.99-1,1.86-2.13-.55-4.61-3.03-6.91-7.44-6.91-2.41,0-4.36,.8-5.84,2.39-1.05,1.13-1.79,2.57-2.24,4.32-.3,1.18,.61,2.32,1.82,2.32Z"/>
      <path class="cls-1" d="M1024.9,349.26c-1.2,1.63-2.65,2.86-4.36,3.68-1.71,.83-3.68,1.24-5.91,1.24-3.54,0-6.56-1.09-9.05-3.27s-3.74-5.07-3.74-8.68c0-2.58,.63-4.85,1.9-6.8s3.21-3.52,5.84-4.68c2.62-1.16,6.71-1.74,12.27-1.74h2.21c1.03,0,1.87-.84,1.87-1.87h0c0-2-.69-3.5-2.06-4.49-1.37-.99-3.44-1.48-6.21-1.48-3.04,0-6.36,.72-9.96,2.15-1.24,.49-2.59-.39-2.59-1.73v-3.42c0-.79,.5-1.51,1.25-1.77,2.35-.79,4.59-1.34,6.71-1.64,2.5-.35,4.66-.53,6.49-.53,3.28,0,6.13,.39,8.54,1.16,2.41,.77,4.39,2.1,5.92,3.98,1.53,1.88,2.3,5.21,2.3,10v12.95c0,1.43,.09,2.35,.26,2.75,.18,.4,.44,.7,.79,.92s.79,.32,1.3,.32c.33,0,.74-.06,1.23-.18v5.56c0,.84-.57,1.58-1.37,1.81-1.59,.46-3.04,.68-4.36,.68-1.2,0-2.3-.17-3.3-.5-1.01-.33-1.9-.79-2.69-1.36-.79-.58-1.54-1.6-2.27-3.06h-1.02Zm1.02-7.92v-3.5c0-1.03-.84-1.87-1.87-1.87h-1.89c-4.2,0-6.92,.6-8.17,1.8-1.25,1.2-1.88,2.5-1.88,3.91s.53,2.48,1.58,3.36c1.05,.89,2.3,1.33,3.73,1.33,1.05,0,2.34-.33,3.87-1,1.32-.58,2.66-1.46,4.02-2.64,.4-.35,.62-.87,.62-1.4Z"/>
      <path class="cls-1" d="M1103.99,352.65c-1.85,1.84-7.91,1.42-13.67,1.41-2.31,0-5.97,.14-9.26,.15-1.71,0-3.6,0-5.7-.03-1.04-.01-3.24-.06-5.93-.86-.55-.16-1.08-.35-1.61-.57-2.32-.95-4.05-2.24-5.18-3.88-1.13-1.64-1.69-4.12-1.69-7.45v-16.59c0-1.05-.85-1.9-1.9-1.9h-4.43c-1.05,0-1.9-.85-1.9-1.9v-3.12c0-1.05,.85-1.9,1.9-1.9h4.43c1.05,0,1.9-.85,1.9-1.9v-5.73c0-1.05,.85-1.9,1.9-1.9h6.6c1.05,0,1.9,.85,1.9,1.9v5.73c0,1.05,.85,1.9,1.9,1.9h10.3c1.05,0,1.9,.85,1.9,1.9v3.12c0,1.05-.85,1.9-1.9,1.9h-10.3c-1.05,0-1.9,.85-1.9,1.9v14.25c0,2.46,.31,4.1,.92,4.93,.18,.24,.37,.46,.59,.67,0,0,.66,.62,1.57,.99,4.63,1.86,13,.9,13,.9,2.5-.2,6.1-.34,10.6,0,3.47-.45,6.28,.56,6.9,2.15,.4,1.03,.14,2.1,.14,2.1s-.24,.99-1.09,1.84Z"/>
      <path class="cls-1" d="M1116.59,349.99v-24.33c0-1.91-1.55-3.46-3.46-3.46h-6.96c-1.91,0-3.46-1.55-3.46-3.46h0c0-1.91,1.55-3.46,3.46-3.46h17.37c1.91,0,3.46,1.55,3.46,3.46v31.25c0,1.91-1.55,3.46-3.46,3.46h-3.48c-1.91,0-3.46-1.55-3.46-3.46Zm0-46.83v-.03c0-2.86,2.32-5.19,5.19-5.19h.03c2.86,0,5.19,2.32,5.19,5.19v.03c0,2.86-2.32,5.19-5.19,5.19h-.03c-2.86,0-5.19-2.32-5.19-5.19Z"/>
      <path class="cls-1" d="M1161.47,352.12l-13.48-34.44c-.48-1.23,.42-2.55,1.74-2.55h7.08c.77,0,1.46,.47,1.74,1.19l8.66,22.14c.62,1.58,2.85,1.59,3.48,.01l8.84-22.16c.28-.71,.97-1.18,1.74-1.18h3.53c1.32,0,2.23,1.34,1.74,2.56l-13.73,34.44c-.28,.71-.97,1.18-1.74,1.18h-7.86c-.77,0-1.46-.47-1.74-1.19Z"/>
      <path class="cls-1" d="M1234.27,350.29c0,.85-.57,1.6-1.4,1.81-5.38,1.39-10.15,2.09-14.32,2.09s-8.02-.79-11.27-2.38c-3.25-1.58-5.75-3.93-7.51-7.04-1.76-3.11-2.64-6.6-2.64-10.47s.82-7.19,2.46-10.38c1.64-3.19,4.03-5.6,7.17-7.23,3.14-1.63,6.6-2.45,10.37-2.45,5.23,0,9.39,1.68,12.48,5.04s4.64,8.02,4.64,13.98v2c0,1.03-.84,1.87-1.87,1.87h-21.64c-1.26,0-2.19,1.23-1.8,2.42,.63,1.9,1.79,3.4,3.47,4.51,2.34,1.55,5.2,2.32,8.58,2.32s6.86-.62,10.81-1.87c1.21-.38,2.44,.51,2.44,1.78v4Zm-23.9-20.08h11.83c1.13,0,1.99-1,1.86-2.13-.55-4.61-3.03-6.91-7.44-6.91-2.41,0-4.36,.8-5.84,2.39-1.05,1.13-1.79,2.57-2.24,4.32-.3,1.18,.61,2.32,1.82,2.32Z"/>
    </g>
    <g>
      <path class="cls-1" d="M1302.32,355.11v-47.19c0-1.34,1.08-2.42,2.42-2.42h16.18c7.41,0,12.63,2.11,15.68,6.33s4.57,10.35,4.57,18.39c0,5.55-.74,10.37-2.23,14.43s-3.74,7.23-6.77,9.49-7.57,3.39-13.64,3.39h-13.79c-1.34,0-2.42-1.08-2.42-2.42Zm10.44-6.93c0,1.34,1.08,2.42,2.42,2.42h.95c4.77,0,8.24-1.43,10.4-4.29,2.16-2.86,3.25-7.77,3.25-14.73,0-3.8-.38-7.01-1.14-9.63-.76-2.62-2.13-4.87-4.1-6.73s-5.09-2.79-9.35-2.79h0c-1.34,0-2.42,1.08-2.42,2.42v33.34Z"/>
      <path class="cls-1" d="M1388.4,353.04c0,1.73-1.18,3.24-2.86,3.64-4.78,1.15-9.07,1.72-12.85,1.72-4.27,0-8.02-.79-11.27-2.38s-5.75-3.93-7.51-7.04c-1.76-3.11-2.64-6.6-2.64-10.47s.82-7.19,2.46-10.38,4.03-5.6,7.17-7.23c3.14-1.63,6.6-2.45,10.37-2.45,5.23,0,9.39,1.68,12.48,5.04s4.64,8.02,4.64,13.98v.13c0,2.07-1.68,3.74-3.74,3.74h-16.11c-3.63,0-5.17,4.7-2.2,6.78,.07,.05,.14,.1,.22,.15,2.34,1.55,5.2,2.32,8.58,2.32,2.61,0,5.44-.4,8.5-1.2,2.4-.63,4.75,1.12,4.75,3.6v.04Zm-21.03-18.61h6.57c2.75,0,4.56-2.87,3.39-5.35-1.16-2.46-3.35-3.69-6.57-3.69-2.41,0-4.36,.8-5.84,2.39-.21,.23-.42,.47-.6,.73-1.8,2.45,.02,5.91,3.06,5.91Z"/>
      <path class="cls-1" d="M1402.38,353.34h0c0-2.4,2.31-4.14,4.62-3.48,3.74,1.08,6.86,1.62,9.34,1.62,2.3,0,4.15-.35,5.57-1.04,1.42-.69,2.13-1.77,2.13-3.23,0-.89-.32-1.62-.95-2.19-.65-.56-1.57-1.08-2.74-1.55l-8.16-3.22c-6.38-2.53-9.57-5.9-9.57-10.1,0-2.16,.71-4.15,2.14-5.98s3.36-3.24,5.8-4.22c2.44-.98,5.95-1.48,10.55-1.48,2.61,0,5.54,.29,8.8,.86,1.72,.3,2.97,1.82,2.97,3.56v.11c0,2.36-2.24,4.1-4.53,3.5-2.83-.74-5.36-1.11-7.57-1.11s-3.88,.28-5.24,.85-2.04,1.39-2.04,2.48c0,.66,.24,1.23,.72,1.7,.48,.47,1.95,1.22,4.41,2.23l9.04,3.7c3.16,1.29,5.29,2.76,6.36,4.43,1.05,1.69,1.58,3.5,1.58,5.44,0,2.22-.67,4.27-2,6.13-1.34,1.86-3.35,3.34-6.05,4.43-2.7,1.09-5.74,1.63-9.14,1.63-1.45,0-3.27-.08-5.45-.23-1.73-.12-4.31-.55-7.75-1.3-1.67-.36-2.86-1.84-2.86-3.54Z"/>
      <path class="cls-1" d="M1466.46,354.06v-24.33c0-1.91-1.55-3.46-3.46-3.46h-6.96c-1.91,0-3.46-1.55-3.46-3.46h0c0-1.91,1.55-3.46,3.46-3.46h17.37c1.91,0,3.46,1.55,3.46,3.46v31.25c0,1.91-1.55,3.46-3.46,3.46h-3.48c-1.91,0-3.46-1.55-3.46-3.46Zm-1.74-49.9v-.12c0-2.84,2.3-5.14,5.14-5.14h.12c2.84,0,5.14,2.3,5.14,5.14v.12c0,2.84-2.3,5.14-5.14,5.14h-.12c-2.84,0-5.14-2.3-5.14-5.14Z"/>
      <path class="cls-1" d="M1501.46,367.83l.49-3.86c.14-1.09,1.25-1.76,2.28-1.39,4.45,1.6,8.21,2.41,11.28,2.41,2.74,0,4.88-.81,6.42-2.44s2.3-3.93,2.3-6.91l.11-7.17h-.42c-1.24,3.02-2.87,5.29-4.87,6.8-1.71,1.29-3.68,2.03-5.92,2.22-5.23,.45-10.19-2.42-12.81-6.97-1.91-3.32-2.87-7.29-2.87-11.91,0-5.98,1.46-10.83,4.39-14.55,2.93-3.72,6.9-5.58,11.92-5.58,1.95,0,3.77,.36,5.47,1.07s3.26,1.8,4.69,3.25h.84l.55-2.16c.19-.76,.88-1.29,1.66-1.29h5.64c.95,0,1.71,.77,1.71,1.71v31.72c0,5.09-.78,8.94-2.34,11.55s-3.64,4.59-6.26,5.92-5.57,2-8.88,2c-4.07,0-8.81-.86-14.22-2.58-.78-.25-1.28-1.03-1.17-1.85Zm22.46-26.96v-10.25c0-.52-.23-1.01-.64-1.33-1.68-1.34-2.95-2.16-3.83-2.48-.98-.35-2.04-.53-3.16-.53-2.81,0-4.78,1.18-5.89,3.54s-1.67,4.99-1.67,7.91c0,3.17,.59,5.6,1.76,7.29s2.81,2.54,4.92,2.54c1.64,0,3.17-.52,4.59-1.55,1.32-.96,2.54-2.37,3.67-4.23,.16-.27,.25-.58,.25-.9Z"/>
      <path class="cls-1" d="M1548.2,355.46v-34.06c0-1.14,.92-2.06,2.06-2.06h6.16c1.19,0,2.13,1,2.06,2.18l-.3,5.17h.42c.94-2.41,2.4-4.39,4.39-5.92s4.56-2.3,7.7-2.3c3.42,0,6.16,1.06,8.23,3.18s3.09,5.38,3.09,9.76v37.69c0,1.14-2.01,1.71-3.15,1.71h-4.61c-1.14,0-3.08-2.11-3.08-3.25l.43-33.8c0-2.23-.38-3.75-1.14-4.56s-1.83-1.21-3.22-1.21c-1.64,0-3.23,.57-4.78,1.71-1.37,1.01-2.53,2.18-3.5,3.53-.25,.34-.37,.76-.37,1.19v21.05c0,1.14-.92,2.06-2.06,2.06h-6.28c-1.14,0-2.06-.92-2.06-2.06Z"/>
    </g>
  </g>
</svg>