<?xml version="1.0" encoding="UTF-8"?>
<svg id="Layer_2" data-name="Layer 2" xmlns="http://www.w3.org/2000/svg" width="841.89" height="595.28" viewBox="0 0 841.89 595.28">
  <defs>
    <style>
      .cls-1 {
        fill: #213a1c;
      }

      .cls-1, .cls-2 {
        stroke: #233a1e;
      }

      .cls-1, .cls-2, .cls-3 {
        stroke-miterlimit: 10;
      }

      .cls-2 {
        fill: none;
        stroke-width: 10px;
      }

      .cls-3 {
        fill: #5e7f57;
        stroke: #5e7f57;
      }
    </style>
  </defs>
  <path class="cls-1" d="M445.21,447.79v-72.39s.48-12.67,4.85-27.77c3.97-13.73,11.17-29.47,24.15-39.53,0,0,39.82-38.74,90.9-43.43,0,0-43.72,40.7-51.08,53.61,0,0-16.45,18.39-20.78,45.39l-2.6,22.3-.16,61.83h-45.29Z"/>
  <path class="cls-1" d="M465.82,329.98c-11.9-13.06-19.44-19.35-22.75-21.59-5.45-3.67-6.04-4.21-7.79-5.33-2.52-1.6-9.41-5.64-24.81-10-3.52-.99-10.13-3.7-26.71-5.57-23.08-2.61-40.7-2.87-46.55-2.87-.41,0-.51,.52-.13,.65,6.98,2.31,43.91,22.6,43.91,22.61,0,0,.02,.01,.02,.01,56.58,36.7,64.64,67.28,64.82,67.98,6.67-15.3,13.34-30.59,20-45.89Z"/>
  <path class="cls-3" d="M456.71,447.79v-72.39s.43-12.67,4.38-27.77c3.59-13.73,10.1-29.47,21.84-39.53,0,0,36-38.74,82.17-43.43,0,0-39.52,40.7-46.17,53.61,0,0-14.87,18.39-18.78,45.39l-2.35,22.3-.14,61.83h-40.94Z"/>
  <path class="cls-3" d="M475.35,329.98c-10.75-13.06-17.57-19.35-20.57-21.59-4.93-3.67-5.46-4.21-7.05-5.33-2.28-1.6-8.5-5.64-22.43-10-3.18-.99-9.15-3.7-24.15-5.57-20.86-2.61-36.79-2.87-42.09-2.87-.37,0-.47,.52-.11,.65,6.31,2.31,39.69,22.6,39.7,22.61,0,0,.01,.01,.01,.01,51.15,36.7,58.43,67.28,58.6,67.98,6.03-15.3,12.06-30.59,18.08-45.89Z"/>
  <circle class="cls-2" cx="456.71" cy="332.82" r="134.57"/>
</svg>